<?xml version="1.0" encoding="UTF-8" standalone="no"?>
<!-- Created with Inkscape (http://www.inkscape.org/) -->

<svg
   xmlns:dc="http://purl.org/dc/elements/1.1/"
   xmlns:cc="http://creativecommons.org/ns#"
   xmlns:rdf="http://www.w3.org/1999/02/22-rdf-syntax-ns#"
   xmlns:svg="http://www.w3.org/2000/svg"
   xmlns="http://www.w3.org/2000/svg"
   xmlns:xlink="http://www.w3.org/1999/xlink"
   xmlns:sodipodi="http://sodipodi.sourceforge.net/DTD/sodipodi-0.dtd"
   xmlns:inkscape="http://www.inkscape.org/namespaces/inkscape"
   width="16"
   height="16"
   viewBox="0 0 16 16"
   id="svg10776"
   version="1.1"
   inkscape:version="0.91 r"
   sodipodi:docname="transcodium.svg">
  <defs
     id="defs10778">
    <radialGradient
       inkscape:collect="always"
       xlink:href="#linearGradient4151"
       id="radialGradient4159"
       cx="-491.42856"
       cy="432.36218"
       fx="-491.42856"
       fy="432.36218"
       r="328.57141"
       gradientTransform="matrix(1,0,0,0.20000001,0,345.88974)"
       gradientUnits="userSpaceOnUse" />
    <linearGradient
       inkscape:collect="always"
       id="linearGradient4151">
      <stop
         style="stop-color:#000000;stop-opacity:1;"
         offset="0"
         id="stop4153" />
      <stop
         style="stop-color:#000000;stop-opacity:0;"
         offset="1"
         id="stop4155" />
    </linearGradient>
    <filter
       style="color-interpolation-filters:sRGB"
       inkscape:label="Drop Shadow"
       id="filter4772">
      <feFlood
         flood-opacity="0.498039"
         flood-color="rgb(0,0,0)"
         result="flood"
         id="feFlood4774" />
      <feComposite
         in="flood"
         in2="SourceGraphic"
         operator="in"
         result="composite1"
         id="feComposite4776" />
      <feGaussianBlur
         in="composite1"
         stdDeviation="1"
         result="blur"
         id="feGaussianBlur4778" />
      <feOffset
         dx="3"
         dy="3"
         result="offset"
         id="feOffset4780" />
      <feComposite
         in="SourceGraphic"
         in2="offset"
         operator="over"
         result="composite2"
         id="feComposite4782" />
    </filter>
    <radialGradient
       inkscape:collect="always"
       xlink:href="#linearGradient5642"
       id="radialGradient5648"
       cx="-889.33234"
       cy="497.56491"
       fx="-889.33234"
       fy="497.56491"
       r="258.7955"
       gradientUnits="userSpaceOnUse"
       gradientTransform="translate(397.90374,-324.73856)" />
    <linearGradient
       inkscape:collect="always"
       id="linearGradient5642">
      <stop
         style="stop-color:#dbdee3;stop-opacity:1;"
         offset="0"
         id="stop5644" />
      <stop
         style="stop-color:#dbdee3;stop-opacity:0;"
         offset="1"
         id="stop5646" />
    </linearGradient>
    <filter
       style="color-interpolation-filters:sRGB"
       inkscape:label="Drop Shadow"
       id="filter5662">
      <feFlood
         flood-opacity="0.498039"
         flood-color="rgb(0,0,0)"
         result="flood"
         id="feFlood5664" />
      <feComposite
         in="flood"
         in2="SourceGraphic"
         operator="in"
         result="composite1"
         id="feComposite5666" />
      <feGaussianBlur
         in="composite1"
         stdDeviation="3"
         result="blur"
         id="feGaussianBlur5668" />
      <feOffset
         dx="6"
         dy="6"
         result="offset"
         id="feOffset5670" />
      <feComposite
         in="SourceGraphic"
         in2="offset"
         operator="over"
         result="composite2"
         id="feComposite5672" />
    </filter>
  </defs>
  <sodipodi:namedview
     id="base"
     pagecolor="#ffffff"
     bordercolor="#666666"
     borderopacity="1.0"
     inkscape:pageopacity="0.0"
     inkscape:pageshadow="2"
     inkscape:zoom="18.681818"
     inkscape:cx="4.5766423"
     inkscape:cy="11"
     inkscape:document-units="px"
     inkscape:current-layer="layer1"
     showgrid="false"
     units="px"
     inkscape:window-width="989"
     inkscape:window-height="576"
     inkscape:window-x="35"
     inkscape:window-y="24"
     inkscape:window-maximized="1" />
  <metadata
     id="metadata10781">
    <rdf:RDF>
      <cc:Work
         rdf:about="">
        <dc:format>image/svg+xml</dc:format>
        <dc:type
           rdf:resource="http://purl.org/dc/dcmitype/StillImage" />
        <dc:title></dc:title>
      </cc:Work>
    </rdf:RDF>
  </metadata>
  <g
     inkscape:label="Layer 1"
     inkscape:groupmode="layer"
     id="layer1"
     transform="translate(0,-1036.3622)">
    <g
       id="g4784"
       transform="matrix(0.02434793,0,0,0.0247869,19.965268,1040.0164)"
       inkscape:export-xdpi="90"
       inkscape:export-ydpi="90">
      <ellipse
         ry="65.714287"
         rx="328.57141"
         cy="432.36218"
         cx="-491.42856"
         id="path4149"
         style="opacity:0.32399998;fill:url(#radialGradient4159);fill-opacity:1;fill-rule:nonzero;stroke:none;stroke-width:8;stroke-miterlimit:4;stroke-dasharray:none;stroke-opacity:1" />
      <g
         style="filter:url(#filter4772)"
         id="g4273">
        <rect
           style="opacity:1;fill:#5599ff;stroke:none;stroke-width:8;stroke-miterlimit:4;stroke-dasharray:none;stroke-opacity:1"
           id="rect3336"
           width="511.42856"
           height="511.42856"
           x="-747.14282"
           y="-82.887917" />
        <rect
           y="-94.050346"
           x="-758.3053"
           height="533.75342"
           width="533.75342"
           id="rect4188"
           style="opacity:0.26100003;fill:#5599ff;stroke:none;stroke-width:8;stroke-miterlimit:4;stroke-dasharray:none;stroke-opacity:1" />
        <rect
           y="-85.969139"
           x="-750.22406"
           height="517.591"
           width="517.591"
           id="rect4186"
           style="opacity:0.20199998;fill:url(#radialGradient5648);fill-opacity:1;fill-rule:nonzero;stroke:none;stroke-width:8;stroke-miterlimit:4;stroke-dasharray:none;stroke-opacity:1" />
        <path
           style="opacity:1;fill:#0b0b28;stroke:none;stroke-width:8;stroke-miterlimit:4;stroke-dasharray:none;stroke-opacity:1;filter:url(#filter5662)"
           d="M -552.22003,-54.733859 -698.45477,60.490025 -430.63683,400.38659 -284.40236,285.16274 -552.22003,-54.733859 Z m 6.3804,22.73174 49.8265,63.236474 -18.444,14.53275 -49.8265,-63.236474 18.444,-14.53275 z m 63.2175,80.231444 49.8265,63.236465 -18.444,14.53275 -49.8265,-63.236465 18.444,-14.53275 z m 62.49082,79.309225 49.82649,63.23649 -18.44401,14.53275 -49.8265,-63.23647 18.44402,-14.53277 z m 62.49085,79.30925 49.82646,63.23645 -18.444,14.53275 -49.82647,-63.23646 18.44401,-14.53274 z m -300.70761,-150.200115 49.8264,63.236465 -18.4439,14.53274 -49.8266,-63.236455 18.4441,-14.53275 z m 63.21744,80.231445 49.8265,63.23645 -18.444,14.53276 -49.82644,-63.23649 18.44394,-14.53272 z m 62.4908,79.30921 49.8266,63.23648 -18.4441,14.53275 -49.8264,-63.23648 18.4439,-14.53275 z m 62.4909,79.30924 49.8265,63.23647 -18.444,14.53274 -49.8265,-63.23646 18.444,-14.53275 z"
           id="rect4151"
           inkscape:connector-curvature="0" />
        <path
           inkscape:connector-curvature="0"
           id="path4179"
           d="m -552.22004,-54.73386 -146.2347,115.223877 267.8179,339.896563 146.23447,-115.22386 -267.81767,-339.89658 z m 6.3804,22.73174 49.8265,63.23647 -18.444,14.53275 -49.8265,-63.23647 18.444,-14.53275 z m 63.2175,80.23144 49.8265,63.23645 -18.444,14.53275 -49.8265,-63.236453 18.444,-14.532747 z m 62.49082,79.30921 49.82649,63.23649 -18.44401,14.53275 -49.8265,-63.23647 18.44402,-14.53277 z m 62.49085,79.30925 49.82646,63.23645 -18.444,14.53275 -49.82647,-63.23646 18.44401,-14.53274 z m -300.70757,-150.200103 49.8264,63.236453 -18.4439,14.53274 -49.8266,-63.236443 18.4441,-14.53275 z m 63.2174,80.231433 49.8265,63.23645 -18.444,14.53276 -49.8264,-63.23649 18.4439,-14.53272 z m 62.4908,79.30921 49.8266,63.23648 -18.4441,14.53275 -49.8264,-63.23648 18.4439,-14.53275 z m 62.4909,79.30924 49.8265,63.23648 -18.444,14.53274 -49.8265,-63.23646 18.444,-14.53276 z"
           style="opacity:1;fill:#4d4d4d;stroke:none;stroke-width:8;stroke-miterlimit:4;stroke-dasharray:none;stroke-opacity:1" />
      </g>
    </g>
  </g>
</svg>
