<?xml version="1.0" encoding="UTF-8" standalone="no"?>
<svg
   xmlns:dc="http://purl.org/dc/elements/1.1/"
   xmlns:cc="http://creativecommons.org/ns#"
   xmlns:rdf="http://www.w3.org/1999/02/22-rdf-syntax-ns#"
   xmlns:svg="http://www.w3.org/2000/svg"
   xmlns="http://www.w3.org/2000/svg"
   xmlns:xlink="http://www.w3.org/1999/xlink"
   version="1.1"
   id="svg10776"
   viewBox="0 0 32 32"
   height="32"
   width="32">
  <defs
     id="defs10778">
    <radialGradient
       gradientUnits="userSpaceOnUse"
       gradientTransform="matrix(1,0,0,0.20000001,0,345.88974)"
       r="328.57141"
       fy="432.36218"
       fx="-491.42856"
       cy="432.36218"
       cx="-491.42856"
       id="radialGradient4159"
       xlink:href="#linearGradient4151" />
    <linearGradient
       id="linearGradient4151">
      <stop
         id="stop4153"
         offset="0"
         style="stop-color:#000000;stop-opacity:1;" />
      <stop
         id="stop4155"
         offset="1"
         style="stop-color:#000000;stop-opacity:0;" />
    </linearGradient>
    <filter
       id="filter4772"
       style="color-interpolation-filters:sRGB">
      <feFlood
         id="feFlood4774"
         result="flood"
         flood-color="rgb(0,0,0)"
         flood-opacity="0.498039" />
      <feComposite
         id="feComposite4776"
         result="composite1"
         operator="in"
         in2="SourceGraphic"
         in="flood" />
      <feGaussianBlur
         id="feGaussianBlur4778"
         result="blur"
         stdDeviation="1"
         in="composite1" />
      <feOffset
         id="feOffset4780"
         result="offset"
         dy="3"
         dx="3" />
      <feComposite
         id="feComposite4782"
         result="composite2"
         operator="over"
         in2="offset"
         in="SourceGraphic" />
    </filter>
    <radialGradient
       gradientTransform="translate(397.90374,-324.73856)"
       gradientUnits="userSpaceOnUse"
       r="258.7955"
       fy="497.56491"
       fx="-889.33234"
       cy="497.56491"
       cx="-889.33234"
       id="radialGradient5648"
       xlink:href="#linearGradient5642" />
    <linearGradient
       id="linearGradient5642">
      <stop
         id="stop5644"
         offset="0"
         style="stop-color:#dbdee3;stop-opacity:1;" />
      <stop
         id="stop5646"
         offset="1"
         style="stop-color:#dbdee3;stop-opacity:0;" />
    </linearGradient>
    <filter
       id="filter5662"
       style="color-interpolation-filters:sRGB">
      <feFlood
         id="feFlood5664"
         result="flood"
         flood-color="rgb(0,0,0)"
         flood-opacity="0.498039" />
      <feComposite
         id="feComposite5666"
         result="composite1"
         operator="in"
         in2="SourceGraphic"
         in="flood" />
      <feGaussianBlur
         id="feGaussianBlur5668"
         result="blur"
         stdDeviation="3"
         in="composite1" />
      <feOffset
         id="feOffset5670"
         result="offset"
         dy="6"
         dx="6" />
      <feComposite
         id="feComposite5672"
         result="composite2"
         operator="over"
         in2="offset"
         in="SourceGraphic" />
    </filter>
  </defs>
  <metadata
     id="metadata10781">
    <rdf:RDF>
      <cc:Work
         rdf:about="">
        <dc:format>image/svg+xml</dc:format>
        <dc:type
           rdf:resource="http://purl.org/dc/dcmitype/StillImage" />
        <dc:title></dc:title>
      </cc:Work>
    </rdf:RDF>
  </metadata>
  <g
     transform="translate(0,-1020.3622)"
     id="layer1">
    <g
       transform="matrix(0.04869586,0,0,0.04957381,39.930553,1027.6706)"
       id="g4784">
      <ellipse
         style="opacity:0.32399998;fill:url(#radialGradient4159);fill-opacity:1;fill-rule:nonzero;stroke:none;stroke-width:8;stroke-miterlimit:4;stroke-dasharray:none;stroke-opacity:1"
         id="path4149"
         cx="-491.42856"
         cy="432.36218"
         rx="328.57141"
         ry="65.714287" />
      <g
         id="g4273"
         style="filter:url(#filter4772)">
        <rect
           y="-82.887917"
           x="-747.14282"
           height="511.42856"
           width="511.42856"
           id="rect3336"
           style="opacity:1;fill:#5599ff;stroke:none;stroke-width:8;stroke-miterlimit:4;stroke-dasharray:none;stroke-opacity:1" />
        <rect
           style="opacity:0.26100003;fill:#5599ff;stroke:none;stroke-width:8;stroke-miterlimit:4;stroke-dasharray:none;stroke-opacity:1"
           id="rect4188"
           width="533.75342"
           height="533.75342"
           x="-758.3053"
           y="-94.050346" />
        <rect
           style="opacity:0.20199998;fill:url(#radialGradient5648);fill-opacity:1;fill-rule:nonzero;stroke:none;stroke-width:8;stroke-miterlimit:4;stroke-dasharray:none;stroke-opacity:1"
           id="rect4186"
           width="517.591"
           height="517.591"
           x="-750.22406"
           y="-85.969139" />
        <path
           id="rect4151"
           d="M -552.22003,-54.733859 -698.45477,60.490025 -430.63683,400.38659 -284.40236,285.16274 -552.22003,-54.733859 Z m 6.3804,22.73174 49.8265,63.236474 -18.444,14.53275 -49.8265,-63.236474 18.444,-14.53275 z m 63.2175,80.231444 49.8265,63.236465 -18.444,14.53275 -49.8265,-63.236465 18.444,-14.53275 z m 62.49082,79.309225 49.82649,63.23649 -18.44401,14.53275 -49.8265,-63.23647 18.44402,-14.53277 z m 62.49085,79.30925 49.82646,63.23645 -18.444,14.53275 -49.82647,-63.23646 18.44401,-14.53274 z m -300.70761,-150.200115 49.8264,63.236465 -18.4439,14.53274 -49.8266,-63.236455 18.4441,-14.53275 z m 63.21744,80.231445 49.8265,63.23645 -18.444,14.53276 -49.82644,-63.23649 18.44394,-14.53272 z m 62.4908,79.30921 49.8266,63.23648 -18.4441,14.53275 -49.8264,-63.23648 18.4439,-14.53275 z m 62.4909,79.30924 49.8265,63.23647 -18.444,14.53274 -49.8265,-63.23646 18.444,-14.53275 z"
           style="opacity:1;fill:#0b0b28;stroke:none;stroke-width:8;stroke-miterlimit:4;stroke-dasharray:none;stroke-opacity:1;filter:url(#filter5662)" />
        <path
           style="opacity:1;fill:#4d4d4d;stroke:none;stroke-width:8;stroke-miterlimit:4;stroke-dasharray:none;stroke-opacity:1"
           d="m -552.22004,-54.73386 -146.2347,115.223877 267.8179,339.896563 146.23447,-115.22386 -267.81767,-339.89658 z m 6.3804,22.73174 49.8265,63.23647 -18.444,14.53275 -49.8265,-63.23647 18.444,-14.53275 z m 63.2175,80.23144 49.8265,63.23645 -18.444,14.53275 -49.8265,-63.236453 18.444,-14.532747 z m 62.49082,79.30921 49.82649,63.23649 -18.44401,14.53275 -49.8265,-63.23647 18.44402,-14.53277 z m 62.49085,79.30925 49.82646,63.23645 -18.444,14.53275 -49.82647,-63.23646 18.44401,-14.53274 z m -300.70757,-150.200103 49.8264,63.236453 -18.4439,14.53274 -49.8266,-63.236443 18.4441,-14.53275 z m 63.2174,80.231433 49.8265,63.23645 -18.444,14.53276 -49.8264,-63.23649 18.4439,-14.53272 z m 62.4908,79.30921 49.8266,63.23648 -18.4441,14.53275 -49.8264,-63.23648 18.4439,-14.53275 z m 62.4909,79.30924 49.8265,63.23648 -18.444,14.53274 -49.8265,-63.23646 18.444,-14.53276 z"
           id="path4179" />
      </g>
    </g>
  </g>
</svg>
